<svg xmlns="http://www.w3.org/2000/svg" width="112" height="100" fill="none" viewBox="0 0 112 100"><mask width="100" height="100" x="12" y="0" maskUnits="userSpaceOnUse" style="mask-type:alpha"><path fill="#d9d9d9" d="M12 0h100v100H12z"/></mask><g clip-path="url(#a)"><path fill="url(#b)" d="M65.508 62.21c3.23.25 4.81.36 7.8 1.68.89.39 1.71.82 2.49 1.4.54.41 1.02.96 1.15 1.65.14.74 0 1.52-.3 2.2-.15.36-.45.62-.76.82-1 .66-2.58.82-3.76.7-.71-.07-1.37-.14-2.08-.3-1.85-.4-3.64-.86-5.47-1.37-2.28-.64-5.89-1.35-8.22-1.5l-3.74-.25c-1.19-.08-2.34-.12-3.51.04l-.56.08.76.08 2.09.19c2.67.24 5.26.76 7.88 1.35 1.49.34 2.89.74 4.35 1.15l3.03.87c2.04.59 5.5 1.09 7.61.83.83-.1 1.6-.34 2.32-.73.76-.41 1.33-1.02 1.61-1.84.45-1.29.52-2.62-.44-3.7-.1-.12-.18-.18-.13-.19l2.49-1.01s5.51-1.29 8.66-3.1l3.55-2.11c.58-.31 1.06-.71 1.58-1.1.88-.65 1.75-1.25 2.73-1.75l1.41-.73c.73-.38 1.47-.71 2.28-.91s1.59-.1 2.29.28c.22.12.44.33.54.56.42.96-.15 2.01-.92 2.65l-3.28 2.7-3.22 2.66c-.9.74-1.77 1.42-2.74 2.07-3.51 2.38-9.49 5.55-13.36 7.48l-4.18 2.09c-1.76.88-3.38 1.9-4.97 3.05a8.1 8.1 0 0 1-4.47 1.57c-1.3.06-2.59.08-3.87-.21l-3.96-.89-5.42-1.32-4.73-1.15-.95-.23c-3.32-.8-6.58-1.45-10.02-1.08-3.06.33-15.93 1.48-18.34 3.36-.08.06-.15.08-.25.03-3.46-1.69-6.05-4.83-7.69-8.26-.68-1.51-1.21-3.03-1.55-4.65-.18-.88-.21-1.73-.25-2.63 3.99.22 18.69-1.1 22.32-2.72 1.39-.62 2.68-1.32 3.95-2.16 3.85-2.55 8.85-3.29 13.32-2.27 1.61.37 3.1.89 4.61 1.54s3 1.36 4.49 2.14l2.42 1.27c1.95 1.03 3.13 1.51 5.41 1.68z"/><path fill="#cbc5ab" d="M80.812 63.04c-1.38.43-2.71.8-4.07 1.34L74.102 63l1.55-.62 2.59-1.1c1.58-.67 4.28-1.96 5.72-2.83l5.45-3.31c1.14-.69 2.25-1.33 3.46-1.88.54-.25 1.07-.45 1.66-.46.55-.01 1.12.31 1.22.87.12.72-.19 1.42-.66 1.96-.68.77-1.46 1.38-2.32 1.95-1.42.93-2.89 1.69-4.37 2.51-1.62.89-3.45 1.68-5.21 2.22l-2.38.74zm4.838-36.57c.33-.22.61-.42.87-.69-1.28.7-2.43 1.51-3.63 2.32-1.85 1.25-3.2 2.47-4.82 3.95l-.68.62c-.4.37-.74.74-1.13 1.14-4.05 4.21-7.79 9.37-9.99 14.86l-.24-.91c-.3-1.03-.52-2.05-.68-3.12-.1-.62-.11-1.21-.16-1.83-.11-1.23.11-3.43.38-4.66.73-3.33 2.29-6.36 4.58-8.88.47-.52.92-.98 1.44-1.45 2.16-1.93 4.66-3.39 7.37-4.42 2.15-.81 4.34-1.38 6.61-1.73 1.67-.26 3.27-.44 4.96-.48l4.75-.14c.34 0 .66-.08.98-.02-2.34 1.07-4.16 3.04-5.27 5.3-1.43 2.9-1.84 5.75-1.94 8.97-.08 2.57-.64 5.04-1.7 7.39-1.56 3.46-4.01 6.42-7.51 8.01-1.4.64-2.83 1.05-4.38 1.16-1.45.11-2.88 0-4.31-.26-1.01-.18-2.02-.69-3-1 .47-2.11 1.63-4.87 2.66-6.74.79-1.44 1.56-2.83 2.49-4.19.78-1.15 1.54-2.23 2.41-3.32 1.13-1.41 2.25-2.79 3.47-4.11l.52-.56c1.71-1.84 3.9-3.75 5.97-5.22zM53.398 41.38c1.64 1.07 3.17 2.14 4.6 3.44l.67.61c.71.65 1.37 1.32 2.03 2.03 1.06 1.15 1.93 2.39 2.72 3.78-1.55 1.07-3.35 1.82-5.34 1.74-2.4-.09-4.57-1.22-6.17-2.98-1.45-1.59-2.38-3.52-2.87-5.61-.65-2.79-2-5.44-4.67-6.74-.39-.19-.76-.31-1.22-.38.19-.16.38-.1.58-.14 3.72-.64 7.19-.89 10.88.13 3.36.93 6.42 3.11 8.12 6.18.97 1.76 1.51 3.67 1.49 5.67v.84c-.52-.82-1.08-1.53-1.74-2.23s-1.29-1.36-2-2.01a33 33 0 0 0-7.43-5.13c-1.12-.56-2.23-.99-3.41-1.41-.05-.02-.07.08-.06.09.02.02.04.07.1.1 1.29.59 2.5 1.23 3.72 2.02"/></g><defs><linearGradient id="b" x1="13" x2="25.5" y1="73" y2="68" gradientUnits="userSpaceOnUse"><stop stop-color="#fff"/><stop offset=".198" stop-color="#f9f9f6"/><stop offset="1" stop-color="#cbc5ab"/></linearGradient><clipPath id="a"><path fill="#fff" d="M0 21h103v59H0z"/></clipPath></defs></svg>